<?xml version="1.0" encoding="iso-8859-1"?>
<!-- Generator: Adobe Illustrator 19.0.0, SVG Export Plug-In . SVG Version: 6.00 Build 0)  -->
<svg version="1.1" id="Capa_1" xmlns="http://www.w3.org/2000/svg" xmlns:xlink="http://www.w3.org/1999/xlink" x="0px" y="0px"
	 viewBox="0 0 512 512" style="enable-background:new 0 0 512 512;" xml:space="preserve">
<path style="fill:#F7D139;" d="M512,256c0,100.666-58.113,187.773-142.618,229.577c-4.741,2.349-9.556,4.551-14.465,6.606
	C324.491,504.952,291.072,512,256,512C114.615,512,0,397.385,0,256S114.615,0,256,0c21.25,0,41.889,2.592,61.632,7.47
	c8.808,2.181,17.436,4.815,25.864,7.88c32.217,11.705,61.421,29.71,86.116,52.519C480.278,114.636,512,181.609,512,256z"/>
<path style="fill:#464141;" d="M369.382,485.577c-4.741,2.349-9.556,4.551-14.465,6.606c-4.741-15.772-20.344-25.517-36.684-22.778
	l-65.267,10.946c-17.152,2.887-34.061-3.371-45.218-16.709c-9.577-11.463-13.264-26.159-10.398-40.445
	c0.263-1.296,0.569-2.581,0.948-3.867c0.295-1.054,0.632-2.107,1.011-3.161c0.601-1.675,1.717-3.024,3.097-3.93
	c2.002-1.317,4.572-1.707,7.006-0.843c4.109,1.475,6.247,6.005,4.773,10.103c-0.948,2.644-1.549,5.341-1.812,8.049
	c-0.822,8.555,1.781,17.109,7.501,23.947c7.522,9.008,18.922,13.222,30.479,11.273l65.256-10.946
	C339.145,449.873,361.639,463.39,369.382,485.577z"/>
<path style="fill:#736E6E;" d="M219.325,432.495l-30.427-12.882c-4.321-1.829-6.34-6.814-4.511-11.134l7.771-18.355
	c1.829-4.321,6.814-6.34,11.134-4.511l30.427,12.882c4.321,1.829,6.34,6.814,4.511,11.134l-7.771,18.355
	C228.63,432.304,223.646,434.323,219.325,432.495z"/>
<g>
	<path style="fill:#5A5555;" d="M190.526,420.307l-1.635-0.693c-4.32-1.83-6.338-6.814-4.509-11.134l7.773-18.361
		c1.829-4.321,6.814-6.34,11.135-4.511l16.633,7.042c-4.314-1.827-9.309,0.197-11.135,4.511l-7.773,18.361
		c-0.093,0.22-0.185,0.437-0.277,0.653C199.059,420.136,194.488,421.985,190.526,420.307z"/>
	<path style="fill:#5A5555;" d="M318.549,155.745c-58.071-24.585-66.138-102.729-16.511-139.271
		c22.192-16.37,52.222-20.943,79.458-9.412s44.853,36.276,48.546,63.604C438.337,131.691,376.674,180.353,318.549,155.745z"/>
</g>
<path style="fill:#8C8787;" d="M364.779,160.789l-7.848,16.115l-0.587,1.207l-11.24,23.082L242.573,411.754
	c-1.248,2.559-4.273,3.696-6.891,2.587l-45.136-19.109c-2.618-1.108-3.908-4.072-2.938-6.749l79.824-220.174l8.751-24.136
	l0.458-1.261l6.109-16.851L364.779,160.789z"/>
<path style="fill:#736E6E;" d="M208.505,397.424c-0.871,2.531-3.592,3.892-6.057,2.848l-11.903-5.039
	c-2.618-1.108-3.908-4.072-2.938-6.749l79.824-220.174l8.751-24.136l0.458-1.261l6.109-16.851l20.926,8.859l-6.109,16.851
	l-0.458,1.261l-8.751,24.136l-79.824,220.174C208.524,397.37,208.515,397.397,208.505,397.424z"/>
<path style="fill:#464141;" d="M329.993,159.621c-3.849-0.984-7.669-2.272-11.446-3.872c-38.322-16.223-57.607-58.581-45.857-97.544
	c0.832-2.773,1.823-5.531,2.982-8.267c2.035-4.807,4.471-9.307,7.278-13.484c21.106-31.56,62.294-44.734,98.544-29.387
	c3.766,1.595,7.362,3.446,10.746,5.524c-33.157-8.545-68.203,4.977-87.109,33.254c-2.807,4.177-5.242,8.677-7.278,13.484
	c-1.159,2.736-2.148,5.493-2.982,8.267C284.274,102.732,298.911,140.615,329.993,159.621z"/>
<circle style="fill:#82E1E1;" cx="327.567" cy="194.536" r="10.877"/>
<circle style="fill:#C30032;" cx="311.195" cy="225.89" r="10.877"/>
<polygon style="fill:#F2C230;" points="364.779,160.789 356.932,176.904 356.346,178.112 276.182,144.174 276.64,142.913 
	282.749,126.061 "/>
<path style="fill:#EBB410;" d="M299.185,147.305c-1.129,3.113-4.638,4.644-7.688,3.352l-15.315-6.484l0.458-1.261l6.109-16.851
	l20.927,8.859L299.185,147.305z"/>
<g>
</g>
<g>
</g>
<g>
</g>
<g>
</g>
<g>
</g>
<g>
</g>
<g>
</g>
<g>
</g>
<g>
</g>
<g>
</g>
<g>
</g>
<g>
</g>
<g>
</g>
<g>
</g>
<g>
</g>
</svg>
